<svg width="19" height="15" viewBox="0 0 19 15" fill="none" xmlns="http://www.w3.org/2000/svg">
<path d="M0 11.5635L1.60486 14.0515C1.76443 14.3364 2.00908 14.5759 2.31152 14.7434C2.61397 14.9109 2.96233 14.9997 3.31777 15H13.9711L11.76 11.5635H0ZM18.9994 11.58C18.9986 11.2495 18.8923 10.9261 18.693 10.6481L12.4494 0.915433C12.2866 0.63895 12.0427 0.407572 11.7441 0.24625C11.4455 0.0849279 11.1034 -0.000215805 10.7549 4.10772e-07H7.45549L17.0977 14.983L18.6194 12.6228C18.9163 12.1706 19 11.9709 19 11.58H18.9994ZM10.189 9.12291L5.8815 2.42997L1.57101 9.12291H10.189Z" fill="#B04646"/>
</svg>
