<svg width="18" height="17" viewBox="0 0 18 17" fill="none" xmlns="http://www.w3.org/2000/svg">
<path fill-rule="evenodd" clip-rule="evenodd" d="M8.99954 0C4.02946 0 0 3.90219 0 8.71569C0 12.5663 2.57815 15.8329 6.15485 16.9847C6.60531 17.0653 6.76915 16.797 6.76915 16.5652C6.76915 16.3587 6.76131 15.811 6.75738 15.083C4.25377 15.6101 3.72554 13.9144 3.72554 13.9144C3.31615 12.9077 2.72608 12.64 2.72608 12.64C1.90892 12.0997 2.78815 12.1102 2.78815 12.1102C3.69138 12.1721 4.16677 13.0081 4.16677 13.0081C4.96938 14.3399 6.27346 13.9544 6.786 13.7328C6.86746 13.1685 7.10054 12.7853 7.35738 12.5669C5.35915 12.347 3.25823 11.5993 3.25823 8.25982C3.25823 7.30807 3.60877 6.52995 4.18431 5.92056C4.09223 5.70111 3.78277 4.81506 4.27269 3.61459C4.27269 3.61459 5.02823 3.3804 6.74792 4.50869C7.46538 4.31449 8.23546 4.21751 9.00092 4.2146C9.76523 4.21773 10.5355 4.31449 11.2539 4.50869C12.9725 3.3804 13.7268 3.61459 13.7268 3.61459C14.2179 4.81506 13.9087 5.70111 13.8164 5.92056C14.3933 6.52995 14.7413 7.30807 14.7413 8.25982C14.7413 11.6071 12.6374 12.3446 10.6325 12.5596C10.9551 12.8288 11.2431 13.3618 11.2431 14.175C11.2431 15.3395 11.2322 16.2792 11.2322 16.565C11.2322 16.7985 11.394 17.07 11.8509 16.9836C15.4237 15.8293 18 12.5651 18 8.71569C18 3.90219 13.9705 0 8.99954 0Z" fill="#B04646"/>
</svg>
