<svg width="21" height="12" viewBox="0 0 21 12" fill="none" xmlns="http://www.w3.org/2000/svg">
<path d="M20.5185 0.812637C20.6652 0.343808 20.5185 0 19.8247 0H17.5265C16.9417 0 16.6745 0.297429 16.5278 0.624097C16.5278 0.624097 15.3593 3.36548 13.7035 5.143C13.169 5.66022 12.9248 5.82356 12.6335 5.82356C12.4878 5.82356 12.2761 5.66023 12.2761 5.1914V0.812637C12.2761 0.250042 12.1074 0 11.6201 0H8.00871C7.64401 0 7.42393 0.260125 7.42393 0.50815C7.42393 1.0405 8.25184 1.1635 8.33673 2.66375V5.91833C8.33673 6.63115 8.20363 6.76122 7.9102 6.76122C7.13154 6.76122 5.23678 4.00975 4.1123 0.860024C3.89327 0.248026 3.67214 0.00100864 3.08527 0.00100864H0.788085C0.130998 0.00100864 0 0.298438 0 0.625105C0 1.2119 0.778653 4.11561 3.62708 7.95597C5.52603 10.5784 8.19944 12 10.635 12C12.0948 12 12.2751 11.6844 12.2751 11.14V9.15779C12.2751 8.52663 12.4144 8.3996 12.8766 8.3996C13.2161 8.3996 13.8009 8.56495 15.1644 9.82826C16.7217 11.3265 16.9795 11.999 17.8545 11.999H20.1517C20.8078 11.999 21.1358 11.6834 20.9471 11.0603C20.7407 10.4403 19.9966 9.53789 19.0094 8.47017C18.4728 7.8612 17.6711 7.20585 17.427 6.87817C17.0864 6.45572 17.1849 6.2692 17.427 5.89414C17.428 5.89514 20.2272 2.10217 20.5185 0.812637Z" fill="#B04646"/>
</svg>
