<svg id="Слой_1" data-name="Слой 1" xmlns="http://www.w3.org/2000/svg" viewBox="0 0 81.9 81.9"><defs><style>.cls-1{fill:none;}.cls-2{fill:#fff;}</style></defs><title>fav</title><path class="cls-1" d="M60.4,142.3a5.28,5.28,0,0,1-2.31-.72,5,5,0,0,0,2.41.82c4.7.7,8.9-1.1,12.8-3.4q4.94-3,9.8-6v-.16c-3.28,2-6.57,4.08-9.9,6.07C69.3,141.2,65.2,143,60.4,142.3Z" transform="translate(-1.2 -78.1)"/><path class="cls-1" d="M72.9,111.2c-1.9,5-3.8,9.9-5.6,14.9-.2.4,0,.9,0,1.4l.1,0a5,5,0,0,1,0-1.28c1.9-5,3.7-9.9,5.6-14.9,2.1-5.5.8-10.4-2.2-15.1a2.89,2.89,0,0,0-.36-.44,2,2,0,0,1,.26.34C73.7,100.8,75,105.8,72.9,111.2Z" transform="translate(-1.2 -78.1)"/><path class="cls-1" d="M61.8,104.7c-1,.6-2,1.3-2.9,1.9a180.56,180.56,0,0,0-47.3,50.1c-1,1.6-2,2.6-3.9,2.3a3.48,3.48,0,0,1-2-.83l0,0a3.67,3.67,0,0,0,2.1.9c1.9.3,2.9-.7,3.9-2.3A180.56,180.56,0,0,1,59,106.7a29,29,0,0,1,2.9-1.9,5.14,5.14,0,0,1,1.31-.29s0-.07,0-.11A5.77,5.77,0,0,0,61.8,104.7Z" transform="translate(-1.2 -78.1)"/><path class="cls-1" d="M39.1,103.5c-.1,1.6-1.1,3.1-1.7,4.7a3.21,3.21,0,0,0-.1,1.4l.1,0a5.64,5.64,0,0,1,.1-1.27c.6-1.6,1.6-3.1,1.7-4.7a5.37,5.37,0,0,0-1.5-3.8l-.06,0A5.69,5.69,0,0,1,39.1,103.5Z" transform="translate(-1.2 -78.1)"/><path class="cls-2" d="M83.1,133q-4.87,3.06-9.8,6c-3.9,2.3-8.1,4.1-12.8,3.4a5,5,0,0,1-2.41-.82,1.3,1.3,0,0,1-.29-.28,50.85,50.85,0,0,1-3.9-6.3c-2.4-4.5.1-8.3,1.9-12.2,2.5-5.5,5-11.1,7.5-16.7.19-.47-.06-1-.09-1.59a5.14,5.14,0,0,0-1.31.29,29,29,0,0,0-2.9,1.9,180.56,180.56,0,0,0-47.3,50.1c-1,1.6-2,2.6-3.9,2.3a3.67,3.67,0,0,1-2.1-.9l0,0a.5.5,0,0,1-.08-.07,31.65,31.65,0,0,1-2.7-4.7c-1-2.1-.7-3.8.6-5.9,4.8-7.3,9.3-14.8,13.6-22.4a193.44,193.44,0,0,1,14.3-21.7,26.92,26.92,0,0,1,2.7-3.2c1-.9,2.5-1.7,3.5-.5l0,0,.06,0a5.37,5.37,0,0,1,1.5,3.8c-.1,1.6-1.1,3.1-1.7,4.7a5.64,5.64,0,0,0-.1,1.27,2.27,2.27,0,0,0,1.1-.47c2-1.7,4-3.4,5.9-5.2A57.83,57.83,0,0,1,61.9,93c2.18-.85,6.87.72,8.54,2.76a2.89,2.89,0,0,1,.36.44c3,4.7,4.3,9.6,2.2,15.1-1.9,5-3.7,9.9-5.6,14.9a5,5,0,0,0,0,1.28,5.1,5.1,0,0,0,1.2-.28c3-1.7,6.1-3.2,8.9-5.1,1.88-1.25,3.74-2.55,5.6-3.87V78.1H1.2V160H83.1Z" transform="translate(-1.2 -78.1)"/><path d="M68.6,127.2a5.1,5.1,0,0,1-1.2.28l-.1,0c0-.5-.2-1,0-1.4,1.8-5,3.7-9.9,5.6-14.9,2.1-5.4.8-10.4-2.2-15.1a2,2,0,0,0-.26-.34c-1.67-2-6.36-3.61-8.54-2.76a57.83,57.83,0,0,0-17.5,10.9c-1.9,1.8-3.9,3.5-5.9,5.2a2.27,2.27,0,0,1-1.1.47l-.1,0a3.21,3.21,0,0,1,.1-1.4c.6-1.6,1.6-3.1,1.7-4.7a5.69,5.69,0,0,0-1.46-3.75l0,0c-1-1.2-2.5-.4-3.5.5a26.92,26.92,0,0,0-2.7,3.2,193.44,193.44,0,0,0-14.3,21.7c-4.3,7.6-8.8,15.1-13.6,22.4-1.3,2.1-1.6,3.8-.6,5.9a31.65,31.65,0,0,0,2.7,4.7.5.5,0,0,0,.08.07,3.48,3.48,0,0,0,2,.83c1.9.3,2.9-.7,3.9-2.3a180.56,180.56,0,0,1,47.3-50.1c.9-.6,1.9-1.3,2.9-1.9a5.77,5.77,0,0,1,1.4-.3s0,.08,0,.11c0,.57.28,1.12.09,1.59-2.5,5.6-5,11.2-7.5,16.7-1.8,3.9-4.3,7.7-1.9,12.2a50.85,50.85,0,0,0,3.9,6.3,1.3,1.3,0,0,0,.29.28,5.28,5.28,0,0,0,2.31.72c4.8.7,8.9-1.1,12.8-3.4,3.33-2,6.62-4,9.9-6.07v-14.6c-1.86,1.32-3.72,2.62-5.6,3.87C74.7,124,71.6,125.5,68.6,127.2Z" transform="translate(-1.2 -78.1)"/></svg>