<svg id="Слой_1" data-name="Слой 1" xmlns="http://www.w3.org/2000/svg" viewBox="0 0 653.58 157.31"><defs><style>.cls-1{fill:#b04646;}</style></defs><title>logo_red</title><path class="cls-1" d="M590,117.2c-6.3-.4-11.5-.3-16.6-1.2-3-.5-5.8-2.3-8.6-3.6a1.38,1.38,0,0,1,0-1.1,18,18,0,0,1,2.6-2.9,5,5,0,0,1,2.6-1.1l19.3-2.1c10-1.1,20.2-1.6,29.9-4.9a39.62,39.62,0,0,0,9.3-4.4A46.6,46.6,0,0,0,639.4,86a1.26,1.26,0,0,0,.2-1.3,1.54,1.54,0,0,0-1.3-.5c-3.4.8-6.8,1.7-10.2,2.4-2.9.6-5.9,1.1-8.8,1.4-3.8.4-6.9-.7-8.6-4.5a12.78,12.78,0,0,0-1.4-2.1,1.74,1.74,0,0,0-2.9-.4c-2.1,1.6-4.3,3.1-6.5,4.6a79.37,79.37,0,0,1-22.1,11.2,33.74,33.74,0,0,1-3.4.9c-4.4.7-8.3.4-10.5-4.3-.8-1.6-1.9-3.1-2.7-4.7-2.3-4.5.2-8.4,1.8-12.3,1.1-2.7,2.7-5.3,3.9-8,.8-1.6,1.4-3.4,2.1-5a41.94,41.94,0,0,0-5,3.1c-7.1,5.7-14.3,11.3-21.2,17.3-6.4,5.6-12.5,11.5-18.5,17.5-1.7,1.7-3.5,1.7-5.4,1.8a2.85,2.85,0,0,1-1.9-1.2c-2.2-2.5-3.1-5.7-4.3-8.7-.2-.4.2-1.3.5-1.6a79,79,0,0,0,11.2-14.5c2.6-4.1,3.2-8.6,4.5-12.9.4-1.2-.7-1.9-1.8-1.8-3.3.4-6.7.4-9.8,1.4a88.53,88.53,0,0,0-21.6,10.1,21.28,21.28,0,0,1-2.5,1.6,11.83,11.83,0,0,0-6.2,7.9c-2.2,8.5-7.8,14.5-15,19.1a18.44,18.44,0,0,1-5.1,1.9c-3.1,1-5.8.8-7.4-2.8-.6-1.3-1.9-2.3-2.4-3.7-1.9-5.4-1.9-5.9,2.1-10.2,3.2-3.5,6-7.4,10.2-10,2.5-1.5,4.4-3.9,6.5-6,.5-.5,1.1-.9,1.3-1.5a7.25,7.25,0,0,0,.4-3.2c-.1-.4-1.8-.6-2.7-.5-5.6.7-10.4,3.4-15,6.4A97.39,97.39,0,0,0,444,85.6c-7.1,7.2-14.1,14.5-21.2,21.8-1.6,1.7-3.1,3.6-5,4.8-1.4,1-3.3,1.1-5,1.6-.2.1-.7-.2-.8-.4-2.3-3-4.5-6.2-5-10-.1-1,.8-2.1,1.4-3.1,2.6-4,5.3-8,7.9-12a3.59,3.59,0,0,0,.2-1.8c-.6.1-1.3-.1-1.8.2-4.2,2.9-8.4,5.9-12.6,8.8a143.45,143.45,0,0,1-23.9,13.4,44.22,44.22,0,0,1-15.9,3.9c-4.4.2-8.7-.6-11-5.2a9.38,9.38,0,0,0-.9-1.2c-2-2.5-2.1-2.6-4.9-1.1-5.4,2.7-10.7,5.3-16.6,6.9-8.7,2.3-11.1.7-15.9-8.4-2.2-4.3-1.3-8.7.1-13.1,1.9-6,3.6-12,5.4-18.1a2.2,2.2,0,0,0-.2-1.8c-.3-.3-1.2-.2-1.7,0a50,50,0,0,0-13.7,9c-5.7,5.1-11.4,10.1-16.7,15.7-7.4,7.8-14.4,16.1-21.6,24.1-.8.9-2,2.2-3,2.3-1.9.1-4.3.9-5.3-2.1-.4-1.2-1.9-2-2.3-3.2-1-3-1.3-5.6,1.2-8.6,4.9-5.9,9-12.4,13.4-18.6.1-.1.4-.2.4-.3a17,17,0,0,1,.4-2.2,9.46,9.46,0,0,0-1.8.5q-3,2.1-6,4.5c-12.8,9.8-25.6,19.5-39.2,28.2-7.6,4.8-15.4,9.2-24,11.9a27.19,27.19,0,0,1-3.8,1.1c-4,.6-7.3-.1-9.8-4.1a30.76,30.76,0,0,1-4.1-9.5c-.5-1.9-.9-2.1-2.5-1-3.8,2.7-7.5,5.5-11.3,8.2a50.1,50.1,0,0,1-14.4,6.8c-7.5,2.2-11,.9-14.7-6-1.3-2.4-1.3-2.4-3.4-1.1-4.8,3-9.5,6.1-14.3,9a20,20,0,0,1-12.4,3,6.8,6.8,0,0,1-5-2.7,25.24,25.24,0,0,1-4.8-9.7c-.6-2.5-.9-2.6-3-1.1a53.38,53.38,0,0,1-4.8,3.5c-5.6,3.6-11.2,7.1-16.9,10.5-3.9,2.3-8,4.1-12.8,3.4-.9-.1-2.2-.4-2.6-1a50.85,50.85,0,0,1-3.9-6.3c-2.4-4.5.1-8.3,1.9-12.2,2.5-5.5,5-11.1,7.5-16.7.2-.5-.1-1.1-.1-1.7a5.77,5.77,0,0,0-1.4.3c-1,.6-2,1.3-2.9,1.9a180.56,180.56,0,0,0-47.3,50.1c-1,1.6-2,2.6-3.9,2.3a3.4,3.4,0,0,1-2.1-.9,31.65,31.65,0,0,1-2.7-4.7c-1-2.1-.7-3.8.6-5.9,4.8-7.3,9.3-14.8,13.6-22.4a193.44,193.44,0,0,1,14.3-21.7,26.92,26.92,0,0,1,2.7-3.2c1-.9,2.5-1.7,3.5-.5a5.73,5.73,0,0,1,1.5,3.8c-.1,1.6-1.1,3.1-1.7,4.7a3.21,3.21,0,0,0-.1,1.4,2.57,2.57,0,0,0,1.2-.5c2-1.7,4-3.4,5.9-5.2A57.83,57.83,0,0,1,61.9,93c2.3-.9,7.4.9,8.8,3.1,3,4.7,4.3,9.7,2.2,15.1-1.9,5-3.8,9.9-5.6,14.9-.2.4,0,.9,0,1.4a6.11,6.11,0,0,0,1.3-.3c3-1.7,6.1-3.2,8.9-5.1,5.1-3.4,10.1-7.1,15.1-10.7,3.2-2.3,6.5-4.3,9.6-6.8s6.1-5.6,9.1-8.5c2.5-2.4,4.8-5,7.3-7.4.9-.8,2.3-2.1,3.1-1.9,2.1.5,4.5.6,5.8,3.2,2.9,5.4,3.1,5.4-1.4,9.6a66.81,66.81,0,0,0-16.6,24,13.36,13.36,0,0,0-.7,1.8,2.55,2.55,0,0,0,.6,1.3c.1.2.7.1.9,0,3.3-1.9,6.6-3.6,9.8-5.7,5.9-3.8,12-7.4,17.4-11.8,6.3-5.1,12.1-10.8,17.9-16.4a49.73,49.73,0,0,1,18.3-11.3c6.3-2.2,11.2-.5,14.9,5.1,1.1,1.7,1.4,1.7,2.8,0,.8-1,2.1-2.7,2.7-2.5,2.1.7,4.8.4,6.1,2.8.7,1.3,1.3,2.7,2,4a3.6,3.6,0,0,1-.3,4.2c-5.5,6.9-7.5,15.5-10.5,23.5-.2.5-.3,1.5,0,1.8a2.2,2.2,0,0,0,1.8.2,100.11,100.11,0,0,0,9.4-4.3c6.8-3.9,13.5-7.9,20.1-12.2,13.1-8.6,25.3-18.4,37.8-27.8,5-3.7,10.3-7,15.5-10.3,4.5-2.8,9.4-1.2,12,3.6a23.86,23.86,0,0,0,1.2,2.2c1,1.3,1.3,1.1,3-.2,6.9-5.3,13.8-10.5,22.3-13.1,3.9-1.2,9.3,1,11.7,4.7,3.5,5.2,3.9,10.7,2.1,16.6s-3.4,12.1-5.1,18.2c-.7,2.5-.4,2.9,2.3,2a92.15,92.15,0,0,0,8.7-3.4c3.4-1.6,6.9-3.3,10.1-5.2a11.37,11.37,0,0,0,4.5-5.8,54.71,54.71,0,0,1,21.1-25.9c5.8-3.8,12.8-1.6,16.3,4.5,1.8,3.1,1.8,5.6-.4,8.2a91.08,91.08,0,0,1-8.1,9.4c-5,4.6-10.4,8.7-15.6,13-1.8,1.5-3.5,3-5.1,4.6-.3.3-.2,1.3-.1,1.8.1.2.9.4,1.3.4a49.45,49.45,0,0,0,15-4.7c6.4-3.3,12.8-6.6,19-10.3a93.53,93.53,0,0,0,10.4-7.4c6.5-5,12.9-10.1,19.3-15.2,4.2-3.4,8.3-6.9,12.6-10.3.8-.6,2.2-1.5,2.9-1.2,2.1.9,5.1.4,6,3,1,3,4.3,5.4,2.6,9.2-.1.2.2.8.4.8a2.74,2.74,0,0,0,1.3-.2c4.4-3.8,9.7-6.2,14.9-8.4,6.3-2.6,17.9-1.4,21.4,5.5,1.2,2.2,1.7,2.1,4,.9,2.6-1.4,5.2-2.8,7.7-4.3a55.4,55.4,0,0,1,15.2-6c6-1.6,12.1-2,18.1.2a10.11,10.11,0,0,1,5.9,5c1.2,2.5,2.6,5,3.7,7.6,1.2,2.8,1,2.7,3.3.9,3.8-3.1,7.9-5.8,11.6-9,4.4-3.8,9.6-6.2,14.6-8.9,4.2-2.3,10.3-.2,12.9,3.8,3.6,5.5,3.3,10.8.3,16.4-2.4,4.4-4.5,8.9-6.7,13.4a2.88,2.88,0,0,0-.1,1.3,5.9,5.9,0,0,0,1.4-.2c5-2.5,10.2-4.4,14.7-7.8,5.7-4.3,11.8-8.2,16.9-13.4,6.3-6.5,12.6-13.1,18.9-19.6,4.6-4.8,9.1-9.7,13.7-14.4.8-.8,2.4-2,2.7-1.8,1.8,1.4,4.8.3,6.1,2.7a62.73,62.73,0,0,1,2.9,5.8c.6,1.5-.3,2.4-1.3,3.4a155.52,155.52,0,0,0-20.1,22.8c-2.8,3.9-5.3,8-7.9,12.1a1.5,1.5,0,0,0-.1,1.3,1.57,1.57,0,0,0,1.3.4l9.6-2.7a72,72,0,0,1,7.7-1.9c10.2-1.3,16,6.8,14.7,14.7-.6,3.4-2.9,6.6-5,9.6-8.9,12.9-21.7,19.1-37.1,20.4C605.5,116,597.2,116.6,590,117.2ZM181.7,91.9c-.5-.2-.9-.6-1.1-.5a22.87,22.87,0,0,0-10.2,5.9c-1.3,1.5-2.6,2.9-3.9,4.4a59.87,59.87,0,0,0-9.6,13.8,3,3,0,0,0-.2,1.3c.4-.1,1,0,1.3-.2a72.59,72.59,0,0,0,20.4-17.8C179.9,96.9,180.6,94.3,181.7,91.9Z" transform="translate(-2.3 -1.74)"/><path class="cls-1" d="M123.6,63.7a9.85,9.85,0,0,1-7.5-6.8c-1.8-5.1-.9-7.5,3.9-10.2a23.56,23.56,0,0,0,3.8-2.2c3-2.6,6.1-2.8,9.6-1.3,1.7.7,5.4,6.2,5.3,7.9a2,2,0,0,1-.6,1.3,111,111,0,0,1-8.3,8.5C128.1,62.2,125.7,62.7,123.6,63.7Z" transform="translate(-2.3 -1.74)"/><path class="cls-1" d="M591.8,22.2c-4.3-.1-9-5-8.6-9.1a7.1,7.1,0,0,1,.8-1.8c.8-1.3,1.6-2.2,1.5-4.2-.3-3.2,4-5.8,7.3-5.3,5.7.8,9.2,4,11.1,9.3,1,2.7.7,4.8-1.4,6.7C599.5,20.6,596.1,22.4,591.8,22.2Z" transform="translate(-2.3 -1.74)"/></svg>